<svg xmlns="http://www.w3.org/2000/svg" width="165" height="57" viewBox="0 0 165 57" fill="none"><path d="M63.9607 27.5342V16.2842H60.4822V14.1242H69.8422V16.2842H66.4132V27.5342H63.9607ZM79.2022 27.7502C78.2122 27.7502 77.2919 27.5769 76.4414 27.2304C75.5909 26.8839 74.8484 26.3972 74.2139 25.7702C73.5794 25.1432 73.0837 24.4089 72.7267 23.5674C72.3697 22.7259 72.1912 21.8102 72.1912 20.8202C72.1912 19.8302 72.3674 18.9144 72.7199 18.0729C73.0724 17.2314 73.5659 16.4994 74.2004 15.8769C74.8349 15.2544 75.5774 14.7707 76.4279 14.4257C77.2784 14.0807 78.2032 13.9082 79.2022 13.9082C80.2012 13.9082 81.1259 14.0814 81.9764 14.4279C82.8269 14.7744 83.5694 15.2589 84.2039 15.8814C84.8384 16.5039 85.3319 17.2352 85.6844 18.0752C86.0369 18.9152 86.2132 19.8302 86.2132 20.8202C86.2132 21.8102 86.0347 22.7259 85.6777 23.5674C85.3207 24.4089 84.8249 25.1432 84.1904 25.7702C83.5559 26.3972 82.8134 26.8839 81.9629 27.2304C81.1124 27.5769 80.1922 27.7502 79.2022 27.7502ZM79.2022 25.5227C79.8562 25.5227 80.4592 25.4057 81.0112 25.1717C81.5632 24.9377 82.0462 24.6099 82.4602 24.1884C82.8742 23.7669 83.1944 23.2697 83.4209 22.6967C83.6474 22.1237 83.7607 21.4982 83.7607 20.8202C83.7607 20.1452 83.6474 19.5234 83.4209 18.9549C83.1944 18.3864 82.8742 17.8892 82.4602 17.4632C82.0462 17.0372 81.5632 16.7094 81.0112 16.4799C80.4592 16.2504 79.8562 16.1357 79.2022 16.1357C78.5482 16.1357 77.9452 16.2504 77.3932 16.4799C76.8412 16.7094 76.3582 17.0372 75.9442 17.4632C75.5302 17.8892 75.2099 18.3864 74.9834 18.9549C74.7569 19.5234 74.6437 20.1452 74.6437 20.8202C74.6437 21.4982 74.7569 22.1237 74.9834 22.6967C75.2099 23.2697 75.5302 23.7669 75.9442 24.1884C76.3582 24.6099 76.8419 24.9377 77.3954 25.1717C77.9489 25.4057 78.5512 25.5227 79.2022 25.5227ZM90.1912 27.5342V14.1242H95.2042C96.1162 14.1242 96.9224 14.2884 97.6229 14.6169C98.3234 14.9454 98.8724 15.4254 99.2699 16.0569C99.6674 16.6884 99.8662 17.4572 99.8662 18.3632C99.8662 19.2512 99.6652 20.0102 99.2632 20.6402C98.8612 21.2702 98.3107 21.7517 97.6117 22.0847C96.9127 22.4177 96.1102 22.5842 95.2042 22.5842H92.6437V27.5342H90.1912ZM92.6437 20.4242H95.2357C95.6767 20.4242 96.0592 20.3379 96.3832 20.1654C96.7072 19.9929 96.9599 19.7514 97.1414 19.4409C97.3229 19.1304 97.4137 18.7697 97.4137 18.3587C97.4137 17.9387 97.3229 17.5742 97.1414 17.2652C96.9599 16.9562 96.7072 16.7154 96.3832 16.5429C96.0592 16.3704 95.6767 16.2842 95.2357 16.2842H92.6437V20.4242ZM107.57 27.5342L112.196 14.1242H115.364L119.99 27.5342H117.331L116.368 24.6632H111.184L110.216 27.5342H107.57ZM111.881 22.5032H115.661L113.443 15.8252H114.118L111.881 22.5032ZM128.09 27.7502C127.061 27.7502 126.146 27.5342 125.345 27.1022C124.544 26.6702 123.916 26.0777 123.462 25.3247C123.007 24.5717 122.78 23.7152 122.78 22.7552V14.1242H125.233V22.6202C125.233 23.1782 125.356 23.6777 125.602 24.1187C125.848 24.5597 126.186 24.9039 126.616 25.1514C127.047 25.3989 127.538 25.5227 128.09 25.5227C128.651 25.5227 129.145 25.3989 129.571 25.1514C129.997 24.9039 130.333 24.5597 130.579 24.1187C130.825 23.6777 130.948 23.1782 130.948 22.6202V14.1242H133.4V22.7552C133.4 23.7152 133.173 24.5717 132.718 25.3247C132.264 26.0777 131.637 26.6702 130.837 27.1022C130.038 27.5342 129.122 27.7502 128.09 27.7502ZM140.029 27.5342V16.2842H136.55V14.1242H145.91V16.2842H142.481V27.5342H140.029ZM155.27 27.7502C154.28 27.7502 153.36 27.5769 152.509 27.2304C151.659 26.8839 150.916 26.3972 150.282 25.7702C149.647 25.1432 149.152 24.4089 148.795 23.5674C148.438 22.7259 148.259 21.8102 148.259 20.8202C148.259 19.8302 148.435 18.9144 148.788 18.0729C149.14 17.2314 149.634 16.4994 150.268 15.8769C150.903 15.2544 151.645 14.7707 152.496 14.4257C153.346 14.0807 154.271 13.9082 155.27 13.9082C156.269 13.9082 157.194 14.0814 158.044 14.4279C158.895 14.7744 159.637 15.2589 160.272 15.8814C160.906 16.5039 161.4 17.2352 161.752 18.0752C162.105 18.9152 162.281 19.8302 162.281 20.8202C162.281 21.8102 162.103 22.7259 161.746 23.5674C161.389 24.4089 160.893 25.1432 160.258 25.7702C159.624 26.3972 158.881 26.8839 158.031 27.2304C157.18 27.5769 156.26 27.7502 155.27 27.7502ZM155.27 25.5227C155.924 25.5227 156.527 25.4057 157.079 25.1717C157.631 24.9377 158.114 24.6099 158.528 24.1884C158.942 23.7669 159.262 23.2697 159.489 22.6967C159.715 22.1237 159.829 21.4982 159.829 20.8202C159.829 20.1452 159.715 19.5234 159.489 18.9549C159.262 18.3864 158.942 17.8892 158.528 17.4632C158.114 17.0372 157.631 16.7094 157.079 16.4799C156.527 16.2504 155.924 16.1357 155.27 16.1357C154.616 16.1357 154.013 16.2504 153.461 16.4799C152.909 16.7094 152.426 17.0372 152.012 17.4632C151.598 17.8892 151.278 18.3864 151.051 18.9549C150.825 19.5234 150.712 20.1452 150.712 20.8202C150.712 21.4982 150.825 22.1237 151.051 22.6967C151.278 23.2697 151.598 23.7669 152.012 24.1884C152.426 24.6099 152.91 24.9377 153.463 25.1717C154.017 25.4057 154.619 25.5227 155.27 25.5227Z" fill="white"></path><path d="M60.3942 44.0342L63.1142 36.5842H63.9742L66.6942 44.0342H65.8542L65.2142 42.2142H61.8842L61.2342 44.0342H60.3942ZM62.1442 41.4642H64.9342L63.4242 37.1842H63.6642L62.1442 41.4642ZM69.6842 44.0342V36.5842H74.4842V37.3342H70.4842V39.9242H74.2842V40.6742H70.4842V43.2842H74.4842V44.0342H69.6842ZM80.3142 44.1542C79.8408 44.1542 79.4108 44.0642 79.0242 43.8842C78.6375 43.7042 78.3108 43.4625 78.0442 43.1592C77.7775 42.8558 77.5875 42.5208 77.4742 42.1542L78.1942 41.8842C78.3675 42.3908 78.6375 42.7758 79.0042 43.0392C79.3708 43.3025 79.8075 43.4342 80.3142 43.4342C80.6342 43.4342 80.9158 43.3825 81.1592 43.2792C81.4025 43.1758 81.5908 43.0308 81.7242 42.8442C81.8575 42.6575 81.9242 42.4408 81.9242 42.1942C81.9242 41.8275 81.8242 41.5442 81.6242 41.3442C81.4242 41.1442 81.1375 40.9908 80.7642 40.8842L79.4242 40.4842C78.8975 40.3308 78.4925 40.0742 78.2092 39.7142C77.9258 39.3542 77.7842 38.9442 77.7842 38.4842C77.7842 38.0908 77.8808 37.7425 78.0742 37.4392C78.2675 37.1358 78.5325 36.8975 78.8692 36.7242C79.2058 36.5508 79.5875 36.4642 80.0142 36.4642C80.4608 36.4642 80.8625 36.5458 81.2192 36.7092C81.5758 36.8725 81.8775 37.0875 82.1242 37.3542C82.3708 37.6208 82.5475 37.9175 82.6542 38.2442L81.9542 38.5242C81.7942 38.0842 81.5458 37.7508 81.2092 37.5242C80.8725 37.2975 80.4775 37.1842 80.0242 37.1842C79.7375 37.1842 79.4858 37.2342 79.2692 37.3342C79.0525 37.4342 78.8842 37.5775 78.7642 37.7642C78.6442 37.9508 78.5842 38.1708 78.5842 38.4242C78.5842 38.7308 78.6808 39.0058 78.8742 39.2492C79.0675 39.4925 79.3642 39.6742 79.7642 39.7942L80.9442 40.1442C81.5308 40.3175 81.9742 40.5675 82.2742 40.8942C82.5742 41.2208 82.7242 41.6308 82.7242 42.1242C82.7242 42.5242 82.6225 42.8758 82.4192 43.1792C82.2158 43.4825 81.9325 43.7208 81.5692 43.8942C81.2058 44.0675 80.7875 44.1542 80.3142 44.1542ZM87.5542 44.0342V37.3342H85.4942V36.5842H90.3942V37.3342H88.3542V44.0342H87.5542ZM93.3842 44.0342V36.5842H94.1842V39.9342H98.1842V36.5842H98.9842V44.0342H98.1842V40.6842H94.1842V44.0342H93.3842ZM102.744 44.0342V36.5842H107.544V37.3342H103.544V39.9242H107.344V40.6742H103.544V43.2842H107.544V44.0342H102.744ZM112.154 44.0342V37.3342H110.094V36.5842H114.994V37.3342H112.954V44.0342H112.154ZM117.984 44.0342V36.5842H118.784V44.0342H117.984ZM125.944 44.1542C125.418 44.1542 124.934 44.0592 124.494 43.8692C124.054 43.6792 123.673 43.4125 123.349 43.0692C123.026 42.7258 122.774 42.3208 122.594 41.8542C122.414 41.3875 122.324 40.8742 122.324 40.3142C122.324 39.7542 122.414 39.2408 122.594 38.7742C122.774 38.3075 123.026 37.9008 123.349 37.5542C123.673 37.2075 124.054 36.9392 124.494 36.7492C124.934 36.5592 125.418 36.4642 125.944 36.4642C126.451 36.4642 126.906 36.5542 127.309 36.7342C127.713 36.9142 128.053 37.1458 128.329 37.4292C128.606 37.7125 128.804 38.0108 128.924 38.3242L128.174 38.6542C127.988 38.2208 127.703 37.8725 127.319 37.6092C126.936 37.3458 126.478 37.2142 125.944 37.2142C125.398 37.2142 124.911 37.3442 124.484 37.6042C124.058 37.8642 123.724 38.2258 123.484 38.6892C123.244 39.1525 123.124 39.6942 123.124 40.3142C123.124 40.9275 123.244 41.4675 123.484 41.9342C123.724 42.4008 124.058 42.7625 124.484 43.0192C124.911 43.2758 125.398 43.4042 125.944 43.4042C126.478 43.4042 126.936 43.2742 127.319 43.0142C127.703 42.7542 127.988 42.4075 128.174 41.9742L128.924 42.3042C128.804 42.6108 128.606 42.9058 128.329 43.1892C128.053 43.4725 127.713 43.7042 127.309 43.8842C126.906 44.0642 126.451 44.1542 125.944 44.1542ZM134.864 44.1542C134.391 44.1542 133.961 44.0642 133.574 43.8842C133.188 43.7042 132.861 43.4625 132.594 43.1592C132.328 42.8558 132.138 42.5208 132.024 42.1542L132.744 41.8842C132.918 42.3908 133.188 42.7758 133.554 43.0392C133.921 43.3025 134.358 43.4342 134.864 43.4342C135.184 43.4342 135.466 43.3825 135.709 43.2792C135.953 43.1758 136.141 43.0308 136.274 42.8442C136.408 42.6575 136.474 42.4408 136.474 42.1942C136.474 41.8275 136.374 41.5442 136.174 41.3442C135.974 41.1442 135.688 40.9908 135.314 40.8842L133.974 40.4842C133.448 40.3308 133.043 40.0742 132.759 39.7142C132.476 39.3542 132.334 38.9442 132.334 38.4842C132.334 38.0908 132.431 37.7425 132.624 37.4392C132.818 37.1358 133.083 36.8975 133.419 36.7242C133.756 36.5508 134.138 36.4642 134.564 36.4642C135.011 36.4642 135.413 36.5458 135.769 36.7092C136.126 36.8725 136.428 37.0875 136.674 37.3542C136.921 37.6208 137.098 37.9175 137.204 38.2442L136.504 38.5242C136.344 38.0842 136.096 37.7508 135.759 37.5242C135.423 37.2975 135.028 37.1842 134.574 37.1842C134.288 37.1842 134.036 37.2342 133.819 37.3342C133.603 37.4342 133.434 37.5775 133.314 37.7642C133.194 37.9508 133.134 38.1708 133.134 38.4242C133.134 38.7308 133.231 39.0058 133.424 39.2492C133.618 39.4925 133.914 39.6742 134.314 39.7942L135.494 40.1442C136.081 40.3175 136.524 40.5675 136.824 40.8942C137.124 41.2208 137.274 41.6308 137.274 42.1242C137.274 42.5242 137.173 42.8758 136.969 43.1792C136.766 43.4825 136.483 43.7208 136.119 43.8942C135.756 44.0675 135.338 44.1542 134.864 44.1542Z" fill="#D4AF37"></path><rect x="28.2842" y="0.707107" width="39" height="39" transform="rotate(45 28.2842 0.707107)" stroke="#D4AF37"></rect><path d="M19.2352 33.2842V25.7842H16.9162V24.3442H23.1562V25.7842H20.8702V33.2842H19.2352ZM22.8202 33.2842L25.9042 24.3442H28.0162L31.1002 33.2842H29.3272L28.6852 31.3702H25.2292L24.5842 33.2842H22.8202ZM25.6942 29.9302H28.2142L26.7352 25.4782H27.1852L25.6942 29.9302ZM31.3642 33.2842L34.4482 24.3442H36.5602L39.6442 33.2842H37.8712L37.2292 31.3702H33.7732L33.1282 33.2842H31.3642ZM34.2382 29.9302H36.7582L35.2792 25.4782H35.7292L34.2382 29.9302Z" fill="#D4AF37"></path></svg>